<svg xmlns="http://www.w3.org/2000/svg" width="23.381" height="16.994" viewBox="0 0 23.381 16.994">
  <g id="primary_care_doctor_icon" data-name="primary care doctor icon" transform="translate(0 0)">
    <path id="Path_1211" data-name="Path 1211" d="M169.606,195.773h-2.894v-2.894h-2.894v2.894h-2.894v2.894h2.894v2.894h2.894v-2.894h2.894Z" transform="translate(-153.923 -188.4)" fill="currentColor"/>
    <path id="Path_1213" data-name="Path 1213" d="M21.933,75.961a31.179,31.179,0,0,0-3.008-.853V72.552a2.169,2.169,0,0,0-1.778-2.143,31.687,31.687,0,0,0-5.457-.477,31.362,31.362,0,0,0-5.46.488,2.168,2.168,0,0,0-1.775,2.142V75.1a30.864,30.864,0,0,0-3.013.857l-.006,0A2.166,2.166,0,0,0,0,78.012a2.5,2.5,0,0,0,.171.909l2.851,6.755h0a2.29,2.29,0,0,0,2,1.25,2.369,2.369,0,0,0,.663-.132l.012-.021a20.151,20.151,0,0,1,11.976-.013h.012a2.272,2.272,0,0,0,.664.1,2.149,2.149,0,0,0,2-1.318h0l2.851-6.686v0A2.185,2.185,0,0,0,23.381,78,2.143,2.143,0,0,0,21.933,75.961Zm-.057,2.33-2.849,6.683,0,.01a.7.7,0,0,1-.669.428l-.247-.037h0a21.634,21.634,0,0,0-12.831,0h0l-.248.037a.7.7,0,0,1-.669-.428l0-.011L1.5,78.287l-.055-.275a.721.721,0,0,1,.468-.682,30.015,30.015,0,0,1,6.228-1.4.723.723,0,1,0-.168-1.437h0c-.695.081-1.385.193-2.073.32V72.563a.723.723,0,0,1,.58-.718A29.682,29.682,0,0,1,16.9,71.834a.724.724,0,0,1,.58.718v2.257c-.682-.126-1.367-.237-2.055-.318a.723.723,0,1,0-.169,1.437,30.261,30.261,0,0,1,6.216,1.4h0a.7.7,0,0,1,.459.67Z" transform="translate(0 -69.932)" fill="currentColor"/>
  </g>
</svg>
